Coordinates
version=1
nRows=10
nColumns=46
inDegrees=yes

Units are S.I. units (second, meters, Newtons, ...)
Angles are in degrees.

endheader
time	pelvis_tilt	pelvis_list	pelvis_rotation	pelvis_tx	pelvis_ty	pelvis_tz	bb_angle	bb_tx	bb_ty	bb_tz	hip_flexion_r	hip_adduction_r	hip_rotation_r	knee_angle_r	knee_angle_r_beta	ankle_angle_r	subtalar_angle_r	mtp_angle_r	crank_angle_r	hip_flexion_l	hip_adduction_l	hip_rotation_l	knee_angle_l	knee_angle_l_beta	ankle_angle_l	subtalar_angle_l	mtp_angle_l	crank_angle_l	lumbar_extension	lumbar_bending	lumbar_rotation	arm_flex_r	arm_add_r	arm_rot_r	elbow_flex_r	pro_sup_r	wrist_flex_r	wrist_dev_r	arm_flex_l	arm_add_l	arm_rot_l	elbow_flex_l	pro_sup_l	wrist_flex_l	wrist_dev_l
      5.00500000	    -10.76510601	     -3.75105801	     -6.40849242	      0.19031366	      1.05762494	     -0.24041742	      0.00000000	      0.50000000	      0.00000000	      0.25000000	     63.72862855	      1.81112694	      0.90086546	     68.85094510	      1.20167569	     18.40711759	      5.27034915	      0.00000000	      0.00000000	     48.10018646	     -8.74352840	      4.72950456	     85.59887446	      1.49398220	     -6.15961812	    -14.49541541	      0.00000000	      0.00000000	    -70.12668909	      3.18673038	      0.75305676	     89.52680079	    -17.57857666	     36.54327761	     72.98099931	     31.35246281	      0.00000000	      0.00000000	     70.01351951	    -40.75830973	     12.59335551	     81.31340790	     47.67653081	      0.00000000	      0.00000000
      5.01000000	    -10.55907467	     -3.33081743	     -6.10102466	      0.19031058	      1.05718050	     -0.23906169	      0.00000000	      0.50000000	      0.00000000	      0.25000000	     62.34608269	      1.39854472	      0.96667504	     66.63344921	      1.16297308	     17.05750631	      5.21190784	      0.00000000	      0.00000000	     48.87779035	     -8.25776709	      4.92208509	     87.90176794	      1.53417527	     -4.89178007	    -14.17595772	      0.00000000	      0.00000000	    -70.09441705	      2.85774008	      0.04290553	     89.50089976	    -17.50220643	     36.61641405	     72.48399776	     31.38019786	      0.00000000	      0.00000000	     70.41671305	    -40.85480816	     12.61520160	     81.07075970	     47.64446325	      0.00000000	      0.00000000
      5.01500000	    -10.40882216	     -2.85013412	     -5.77818007	      0.19022889	      1.05642482	     -0.23753788	      0.00000000	      0.50000000	      0.00000000	      0.25000000	     61.03106993	      0.99076359	      1.13749769	     64.48217286	      1.12542623	     15.59342110	      5.14007341	      0.00000000	      0.00000000	     49.81093833	     -7.80082751	      4.99194774	     90.25256920	      1.57520449	     -3.70073392	    -14.04085548	      0.00000000	      0.00000000	    -69.99197795	      2.50077418	     -0.61942103	     89.46921143	    -17.55048256	     36.61165692	     72.15232103	     31.41799153	      0.00000000	      0.00000000	     70.84124666	    -40.92263455	     12.64370045	     80.90853224	     47.61542349	      0.00000000	      0.00000000
      5.02000000	    -10.33748806	     -2.23618275	     -5.39067960	      0.19022911	      1.05586443	     -0.23619675	      0.00000000	      0.50000000	      0.00000000	      0.25000000	     59.69982785	      0.42542232	      1.37007972	     62.21880626	      1.08592303	     14.38457527	      5.13439367	      0.00000000	      0.00000000	     50.81036899	     -7.12972416	      5.06935864	     92.42178438	      1.61306444	     -2.66435273	    -14.03113225	      0.00000000	      0.00000000	    -69.85564945	      2.14235858	     -1.39444486	     89.42071047	    -17.69539952	     36.55802698	     71.93556142	     31.43722994	      0.00000000	      0.00000000	     71.13633243	    -40.94278109	     12.68118794	     80.76116197	     47.58821463	      0.00000000	      0.00000000
      5.02500000	    -10.28395335	     -1.96144767	     -4.80585258	      0.19000870	      1.05518918	     -0.23429691	      0.00000000	      0.50000000	      0.00000000	      0.25000000	     58.24951173	      0.13380922	      1.40239098	     59.89238961	      1.04531940	     12.67172086	      3.96755738	      0.00000000	      0.00000000	     52.02344416	     -6.78779392	      5.57224361	     94.71949815	      1.65316711	     -1.04489326	    -12.52158933	      0.00000000	      0.00000000	    -69.65640754	      1.95944788	     -2.09157411	     89.40185453	    -17.52778019	     36.73129762	     71.04189056	     31.46194919	      0.00000000	      0.00000000	     72.03586860	    -41.28775700	     13.40801425	     80.11028913	     47.54388429	      0.00000000	      0.00000000
      5.03000000	    -10.24755981	     -1.27503881	     -4.25645398	      0.18992876	      1.05445736	     -0.23312920	      0.00000000	      0.50000000	      0.00000000	      0.25000000	     56.89001926	     -0.62354998	      1.57357818	     57.69607105	      1.00698641	     11.48967291	      3.92897300	      0.00000000	      0.00000000	     53.23704886	     -6.09220500	      5.48827681	     96.81019234	      1.68965661	     -0.29919257	    -12.53198738	      0.00000000	      0.00000000	    -69.47753462	      1.70162217	     -3.00195191	     89.34910407	    -17.68529062	     36.65308342	     70.82235934	     31.48654494	      0.00000000	      0.00000000	     72.47412935	    -41.31816007	     13.52326573	     79.96867255	     47.52484842	      0.00000000	      0.00000000
      5.03500000	    -10.28776215	     -0.59787561	     -3.73526159	      0.18983424	      1.05363813	     -0.23194422	      0.00000000	      0.50000000	      0.00000000	      0.25000000	     55.53035695	     -1.29760983	      1.83118277	     55.42221094	      0.96730006	     10.23212523	      3.98174305	      0.00000000	      0.00000000	     54.56598671	     -5.39051559	      5.47370778	     98.84929701	      1.72524570	      0.35439640	    -12.45684836	      0.00000000	      0.00000000	    -69.24843796	      1.37713184	     -3.89048198	     89.28331847	    -17.86083596	     36.58907202	     70.61431683	     31.49979861	      0.00000000	      0.00000000	     72.85801482	    -41.33869908	     13.62648726	     79.87169262	     47.51068994	      0.00000000	      0.00000000
      5.04000000	    -10.30498921	     -0.25453862	     -3.08400307	      0.18952591	      1.05269452	     -0.23042645	      0.00000000	      0.50000000	      0.00000000	      0.25000000	     54.09722304	     -1.74809235	      1.73800324	     53.17053387	      0.92800088	      8.29551996	      2.66896833	      0.00000000	      0.00000000	     56.05572799	     -4.97559424	      5.85089428	    100.97808757	      1.76240010	      1.47710716	    -11.22552858	      0.00000000	      0.00000000	    -68.96584556	      1.20993382	     -4.73328958	     89.25555945	    -17.51089242	     36.65422429	     69.16501334	     31.81287687	      0.00000000	      0.00000000	     74.47307526	    -42.20693590	     15.86020795	     78.87313316	     47.55455029	      0.00000000	      0.00000000
      5.04500000	    -10.39920232	      0.38826176	     -2.51253666	      0.18950254	      1.05185904	     -0.22941836	      0.00000000	      0.50000000	      0.00000000	      0.25000000	     52.71354642	     -2.48385067	      1.87490706	     50.95524283	      0.88933676	      7.28905447	      2.68434834	      0.00000000	      0.00000000	     57.58015374	     -4.32328442	      5.78441748	    102.87621249	      1.79552863	      1.83005378	    -11.13621524	      0.00000000	      0.00000000	    -68.70825051	      0.82716362	     -5.68115399	     89.12543972	    -17.81102402	     36.53447356	     69.02921143	     31.85408700	      0.00000000	      0.00000000	     74.82900871	    -42.14188711	     15.87269078	     78.96264506	     47.56127414	      0.00000000	      0.00000000
      5.05000000	    -10.32645308	      0.66114963	     -1.80691199	      0.18950670	      1.05134356	     -0.22841925	      0.00000000	      0.50000000	      0.00000000	      0.25000000	     51.00435251	     -2.99402888	      1.39431868	     48.45648455	      0.84572520	      5.57007625	      1.15141061	      0.00000000	      0.00000000	     59.04952502	     -3.90380891	      6.15219723	    104.80442988	      1.82918237	      2.58208008	    -10.08597280	      0.00000000	      0.00000000	    -68.66673736	      0.75931328	     -6.36003514	     89.10842878	    -18.04557335	     36.84172553	     68.41632201	     32.13279394	      0.00000000	      0.00000000	     75.92530858	    -42.49158651	     17.04620347	     78.88231817	     47.61873595	      0.00000000	      0.00000000
